<mxfile host="app.diagrams.net" agent="Mozilla/5.0 (Windows NT 10.0; Win64; x64) AppleWebKit/537.36 (KHTML, like Gecko) Chrome/128.0.0.0 Safari/537.36" version="26.0.14">
  <diagram name="1 oldal" id="homTbI2E1GBPK-J_4SYi">
    <mxGraphModel dx="2271" dy="887" grid="1" gridSize="10" guides="1" tooltips="1" connect="1" arrows="1" fold="1" page="1" pageScale="1" pageWidth="827" pageHeight="1169" math="0" shadow="0">
      <root>
        <mxCell id="0" />
        <mxCell id="1" parent="0" />
        <mxCell id="W9U9pzRwrjz12LP2EGkp-2" value="KORHAZ" style="rounded=0;whiteSpace=wrap;html=1;" parent="1" vertex="1">
          <mxGeometry x="-20" y="1050" width="120" height="50" as="geometry" />
        </mxCell>
        <mxCell id="W9U9pzRwrjz12LP2EGkp-3" value="ORVOS" style="rounded=0;whiteSpace=wrap;html=1;" parent="1" vertex="1">
          <mxGeometry x="700" y="940" width="150" height="50" as="geometry" />
        </mxCell>
        <mxCell id="W9U9pzRwrjz12LP2EGkp-4" value="SZOLGALTATAS" style="rounded=0;whiteSpace=wrap;html=1;" parent="1" vertex="1">
          <mxGeometry x="-450" y="850" width="150" height="50" as="geometry" />
        </mxCell>
        <mxCell id="W9U9pzRwrjz12LP2EGkp-5" value="IDOPONT" style="rhombus;whiteSpace=wrap;html=1;" parent="1" vertex="1">
          <mxGeometry x="-60" y="700" width="120" height="120" as="geometry" />
        </mxCell>
        <mxCell id="W9U9pzRwrjz12LP2EGkp-6" value="nev" style="ellipse;whiteSpace=wrap;html=1;" parent="1" vertex="1">
          <mxGeometry x="565" y="1180" width="140" height="50" as="geometry" />
        </mxCell>
        <mxCell id="W9U9pzRwrjz12LP2EGkp-7" value="" style="endArrow=none;html=1;rounded=0;entryX=0.25;entryY=1;entryDx=0;entryDy=0;exitX=0.5;exitY=0;exitDx=0;exitDy=0;endFill=0;" parent="1" source="W9U9pzRwrjz12LP2EGkp-6" target="W9U9pzRwrjz12LP2EGkp-3" edge="1">
          <mxGeometry width="50" height="50" relative="1" as="geometry">
            <mxPoint x="755" y="1210" as="sourcePoint" />
            <mxPoint x="627.9000000000001" y="1095.75" as="targetPoint" />
          </mxGeometry>
        </mxCell>
        <mxCell id="W9U9pzRwrjz12LP2EGkp-8" value="kep_nev" style="ellipse;whiteSpace=wrap;html=1;" parent="1" vertex="1">
          <mxGeometry x="705" y="1230" width="140" height="50" as="geometry" />
        </mxCell>
        <mxCell id="W9U9pzRwrjz12LP2EGkp-9" value="" style="endArrow=none;html=1;rounded=0;endFill=0;entryX=0.5;entryY=0;entryDx=0;entryDy=0;" parent="1" target="W9U9pzRwrjz12LP2EGkp-8" edge="1">
          <mxGeometry width="50" height="50" relative="1" as="geometry">
            <mxPoint x="748" y="990" as="sourcePoint" />
            <mxPoint x="660" y="770" as="targetPoint" />
          </mxGeometry>
        </mxCell>
        <mxCell id="W9U9pzRwrjz12LP2EGkp-11" value="szakterulet_id" style="ellipse;whiteSpace=wrap;html=1;" parent="1" vertex="1">
          <mxGeometry x="880" y="1280" width="140" height="50" as="geometry" />
        </mxCell>
        <mxCell id="W9U9pzRwrjz12LP2EGkp-12" value="" style="endArrow=none;html=1;rounded=0;exitX=0;exitY=0;exitDx=0;exitDy=0;endFill=0;entryX=0.5;entryY=1;entryDx=0;entryDy=0;" parent="1" source="W9U9pzRwrjz12LP2EGkp-11" target="W9U9pzRwrjz12LP2EGkp-3" edge="1">
          <mxGeometry width="50" height="50" relative="1" as="geometry">
            <mxPoint x="755" y="860" as="sourcePoint" />
            <mxPoint x="750" y="940" as="targetPoint" />
          </mxGeometry>
        </mxCell>
        <mxCell id="W9U9pzRwrjz12LP2EGkp-13" value="email" style="ellipse;whiteSpace=wrap;html=1;" parent="1" vertex="1">
          <mxGeometry x="960" y="1130" width="140" height="50" as="geometry" />
        </mxCell>
        <mxCell id="W9U9pzRwrjz12LP2EGkp-14" value="" style="endArrow=none;html=1;rounded=0;entryX=1;entryY=1;entryDx=0;entryDy=0;exitX=0;exitY=0;exitDx=0;exitDy=0;endFill=0;" parent="1" source="W9U9pzRwrjz12LP2EGkp-13" target="W9U9pzRwrjz12LP2EGkp-3" edge="1">
          <mxGeometry width="50" height="50" relative="1" as="geometry">
            <mxPoint x="820" y="872.5" as="sourcePoint" />
            <mxPoint x="970" y="905" as="targetPoint" />
          </mxGeometry>
        </mxCell>
        <mxCell id="W9U9pzRwrjz12LP2EGkp-15" value="telSzam" style="ellipse;whiteSpace=wrap;html=1;" parent="1" vertex="1">
          <mxGeometry x="1109.65" y="1000.8" width="140" height="50" as="geometry" />
        </mxCell>
        <mxCell id="W9U9pzRwrjz12LP2EGkp-16" value="" style="endArrow=none;html=1;rounded=0;entryX=0;entryY=1;entryDx=0;entryDy=0;exitX=1;exitY=0.75;exitDx=0;exitDy=0;endFill=0;" parent="1" source="W9U9pzRwrjz12LP2EGkp-3" target="W9U9pzRwrjz12LP2EGkp-15" edge="1">
          <mxGeometry width="50" height="50" relative="1" as="geometry">
            <mxPoint x="929.9999999999999" y="1150" as="sourcePoint" />
            <mxPoint x="1019.65" y="1272.8" as="targetPoint" />
          </mxGeometry>
        </mxCell>
        <mxCell id="W9U9pzRwrjz12LP2EGkp-20" value="korhaz" style="ellipse;whiteSpace=wrap;html=1;" parent="1" vertex="1">
          <mxGeometry x="1090" y="890" width="140" height="50" as="geometry" />
        </mxCell>
        <mxCell id="W9U9pzRwrjz12LP2EGkp-21" value="" style="endArrow=none;html=1;rounded=0;entryX=0;entryY=0.5;entryDx=0;entryDy=0;endFill=0;exitX=1;exitY=0.5;exitDx=0;exitDy=0;" parent="1" source="W9U9pzRwrjz12LP2EGkp-3" target="W9U9pzRwrjz12LP2EGkp-20" edge="1">
          <mxGeometry width="50" height="50" relative="1" as="geometry">
            <mxPoint x="823" y="990" as="sourcePoint" />
            <mxPoint x="900" y="1120" as="targetPoint" />
          </mxGeometry>
        </mxCell>
        <mxCell id="W9U9pzRwrjz12LP2EGkp-22" value="&lt;u&gt;orvos_id&lt;/u&gt;" style="ellipse;whiteSpace=wrap;html=1;" parent="1" vertex="1">
          <mxGeometry x="414" y="1150" width="140" height="50" as="geometry" />
        </mxCell>
        <mxCell id="W9U9pzRwrjz12LP2EGkp-23" value="" style="endArrow=none;html=1;rounded=0;entryX=0.5;entryY=0;entryDx=0;entryDy=0;exitX=0;exitY=1;exitDx=0;exitDy=0;endFill=0;" parent="1" source="W9U9pzRwrjz12LP2EGkp-3" target="W9U9pzRwrjz12LP2EGkp-22" edge="1">
          <mxGeometry width="50" height="50" relative="1" as="geometry">
            <mxPoint x="840" y="1320" as="sourcePoint" />
            <mxPoint x="720" y="1287.5" as="targetPoint" />
          </mxGeometry>
        </mxCell>
        <mxCell id="W9U9pzRwrjz12LP2EGkp-33" value="&lt;u&gt;korhaz_id&lt;/u&gt;" style="ellipse;whiteSpace=wrap;html=1;" parent="1" vertex="1">
          <mxGeometry x="-270" y="1150" width="140" height="50" as="geometry" />
        </mxCell>
        <mxCell id="W9U9pzRwrjz12LP2EGkp-34" value="" style="endArrow=none;html=1;rounded=0;entryX=0.5;entryY=0;entryDx=0;entryDy=0;exitX=0;exitY=0.5;exitDx=0;exitDy=0;endFill=0;" parent="1" source="W9U9pzRwrjz12LP2EGkp-2" edge="1">
          <mxGeometry width="50" height="50" relative="1" as="geometry">
            <mxPoint x="-20" y="1203" as="sourcePoint" />
            <mxPoint x="-130" y="1170" as="targetPoint" />
          </mxGeometry>
        </mxCell>
        <mxCell id="W9U9pzRwrjz12LP2EGkp-35" value="korhaz_nev" style="ellipse;whiteSpace=wrap;html=1;" parent="1" vertex="1">
          <mxGeometry x="-126" y="1240" width="140" height="50" as="geometry" />
        </mxCell>
        <mxCell id="W9U9pzRwrjz12LP2EGkp-36" value="" style="endArrow=none;html=1;rounded=0;entryX=0.571;entryY=0;entryDx=0;entryDy=0;exitX=0;exitY=0.5;exitDx=0;exitDy=0;endFill=0;entryPerimeter=0;" parent="1" target="W9U9pzRwrjz12LP2EGkp-35" edge="1">
          <mxGeometry width="50" height="50" relative="1" as="geometry">
            <mxPoint x="14" y="1100" as="sourcePoint" />
            <mxPoint x="-96" y="1195" as="targetPoint" />
          </mxGeometry>
        </mxCell>
        <mxCell id="W9U9pzRwrjz12LP2EGkp-37" value="korhaz_cim" style="ellipse;whiteSpace=wrap;html=1;" parent="1" vertex="1">
          <mxGeometry x="80" y="1270" width="140" height="50" as="geometry" />
        </mxCell>
        <mxCell id="W9U9pzRwrjz12LP2EGkp-38" value="" style="endArrow=none;html=1;rounded=0;entryX=0.571;entryY=0;entryDx=0;entryDy=0;exitX=0.897;exitY=0.971;exitDx=0;exitDy=0;endFill=0;entryPerimeter=0;exitPerimeter=0;" parent="1" source="W9U9pzRwrjz12LP2EGkp-2" target="W9U9pzRwrjz12LP2EGkp-37" edge="1">
          <mxGeometry width="50" height="50" relative="1" as="geometry">
            <mxPoint x="172" y="1130" as="sourcePoint" />
            <mxPoint x="154" y="1265" as="targetPoint" />
          </mxGeometry>
        </mxCell>
        <mxCell id="W9U9pzRwrjz12LP2EGkp-39" value="&lt;u&gt;szolgaltatas_id&lt;/u&gt;" style="ellipse;whiteSpace=wrap;html=1;" parent="1" vertex="1">
          <mxGeometry x="-730" y="840" width="120" height="50" as="geometry" />
        </mxCell>
        <mxCell id="W9U9pzRwrjz12LP2EGkp-40" value="" style="endArrow=none;html=1;rounded=0;exitX=0;exitY=0.25;exitDx=0;exitDy=0;endFill=0;" parent="1" source="W9U9pzRwrjz12LP2EGkp-4" target="W9U9pzRwrjz12LP2EGkp-39" edge="1">
          <mxGeometry width="50" height="50" relative="1" as="geometry">
            <mxPoint x="-610" y="779" as="sourcePoint" />
            <mxPoint x="-592" y="910" as="targetPoint" />
          </mxGeometry>
        </mxCell>
        <mxCell id="W9U9pzRwrjz12LP2EGkp-41" value="szolgaltatas_nev" style="ellipse;whiteSpace=wrap;html=1;" parent="1" vertex="1">
          <mxGeometry x="-570" y="970" width="120" height="50" as="geometry" />
        </mxCell>
        <mxCell id="W9U9pzRwrjz12LP2EGkp-42" value="" style="endArrow=none;html=1;rounded=0;exitX=0;exitY=0.25;exitDx=0;exitDy=0;endFill=0;entryX=0.5;entryY=0;entryDx=0;entryDy=0;" parent="1" target="W9U9pzRwrjz12LP2EGkp-41" edge="1">
          <mxGeometry width="50" height="50" relative="1" as="geometry">
            <mxPoint x="-446" y="900" as="sourcePoint" />
            <mxPoint x="-574" y="954" as="targetPoint" />
          </mxGeometry>
        </mxCell>
        <mxCell id="W9U9pzRwrjz12LP2EGkp-43" value="ar" style="ellipse;whiteSpace=wrap;html=1;" parent="1" vertex="1">
          <mxGeometry x="-340" y="1020" width="120" height="50" as="geometry" />
        </mxCell>
        <mxCell id="W9U9pzRwrjz12LP2EGkp-44" value="" style="endArrow=none;html=1;rounded=0;endFill=0;entryX=0.5;entryY=0;entryDx=0;entryDy=0;exitX=0.838;exitY=1.02;exitDx=0;exitDy=0;exitPerimeter=0;" parent="1" source="W9U9pzRwrjz12LP2EGkp-4" target="W9U9pzRwrjz12LP2EGkp-43" edge="1">
          <mxGeometry width="50" height="50" relative="1" as="geometry">
            <mxPoint x="-330" y="910" as="sourcePoint" />
            <mxPoint x="-317" y="990" as="targetPoint" />
          </mxGeometry>
        </mxCell>
        <mxCell id="W9U9pzRwrjz12LP2EGkp-47" value="szakterulet" style="ellipse;whiteSpace=wrap;html=1;" parent="1" vertex="1">
          <mxGeometry x="-464" y="1020" width="120" height="50" as="geometry" />
        </mxCell>
        <mxCell id="W9U9pzRwrjz12LP2EGkp-48" value="" style="endArrow=none;html=1;rounded=0;exitX=0.75;exitY=1;exitDx=0;exitDy=0;endFill=0;entryX=0.5;entryY=0;entryDx=0;entryDy=0;" parent="1" source="W9U9pzRwrjz12LP2EGkp-4" target="W9U9pzRwrjz12LP2EGkp-47" edge="1">
          <mxGeometry width="50" height="50" relative="1" as="geometry">
            <mxPoint x="-340" y="950" as="sourcePoint" />
            <mxPoint x="-468" y="1004" as="targetPoint" />
          </mxGeometry>
        </mxCell>
        <mxCell id="W9U9pzRwrjz12LP2EGkp-49" value="foglalo_neve" style="ellipse;whiteSpace=wrap;html=1;" parent="1" vertex="1">
          <mxGeometry x="-240" y="640" width="120" height="50" as="geometry" />
        </mxCell>
        <mxCell id="W9U9pzRwrjz12LP2EGkp-50" value="" style="endArrow=none;html=1;rounded=0;entryX=0.5;entryY=0;entryDx=0;entryDy=0;exitX=0;exitY=0;exitDx=0;exitDy=0;endFill=0;" parent="1" source="W9U9pzRwrjz12LP2EGkp-5" edge="1">
          <mxGeometry width="50" height="50" relative="1" as="geometry">
            <mxPoint x="-10" y="570" as="sourcePoint" />
            <mxPoint x="-120" y="665" as="targetPoint" />
          </mxGeometry>
        </mxCell>
        <mxCell id="W9U9pzRwrjz12LP2EGkp-51" value="szolgaltatas_id" style="ellipse;whiteSpace=wrap;html=1;" parent="1" vertex="1">
          <mxGeometry x="-70" y="520" width="120" height="50" as="geometry" />
        </mxCell>
        <mxCell id="W9U9pzRwrjz12LP2EGkp-52" value="" style="endArrow=none;html=1;rounded=0;entryX=0.5;entryY=1;entryDx=0;entryDy=0;endFill=0;" parent="1" source="W9U9pzRwrjz12LP2EGkp-5" target="W9U9pzRwrjz12LP2EGkp-51" edge="1">
          <mxGeometry width="50" height="50" relative="1" as="geometry">
            <mxPoint x="15" y="594.9999999999998" as="sourcePoint" />
            <mxPoint x="-90" y="610" as="targetPoint" />
          </mxGeometry>
        </mxCell>
        <mxCell id="W9U9pzRwrjz12LP2EGkp-53" value="korhaz_id" style="ellipse;whiteSpace=wrap;html=1;" parent="1" vertex="1">
          <mxGeometry x="40" y="560" width="120" height="50" as="geometry" />
        </mxCell>
        <mxCell id="W9U9pzRwrjz12LP2EGkp-54" value="" style="endArrow=none;html=1;rounded=0;entryX=0.5;entryY=0;entryDx=0;entryDy=0;exitX=0;exitY=1;exitDx=0;exitDy=0;endFill=0;" parent="1" target="W9U9pzRwrjz12LP2EGkp-5" edge="1">
          <mxGeometry width="50" height="50" relative="1" as="geometry">
            <mxPoint x="80" y="609.9999999999998" as="sourcePoint" />
            <mxPoint x="-40" y="670" as="targetPoint" />
          </mxGeometry>
        </mxCell>
        <mxCell id="W9U9pzRwrjz12LP2EGkp-55" value="orvos_id" style="ellipse;whiteSpace=wrap;html=1;" parent="1" vertex="1">
          <mxGeometry x="120" y="610" width="120" height="50" as="geometry" />
        </mxCell>
        <mxCell id="W9U9pzRwrjz12LP2EGkp-56" value="" style="endArrow=none;html=1;rounded=0;entryX=0.5;entryY=0;entryDx=0;entryDy=0;exitX=0;exitY=0.5;exitDx=0;exitDy=0;endFill=0;" parent="1" source="W9U9pzRwrjz12LP2EGkp-55" edge="1">
          <mxGeometry width="50" height="50" relative="1" as="geometry">
            <mxPoint x="110" y="785" as="sourcePoint" />
            <mxPoint x="20" y="720" as="targetPoint" />
          </mxGeometry>
        </mxCell>
        <mxCell id="W9U9pzRwrjz12LP2EGkp-57" value="ido" style="ellipse;whiteSpace=wrap;html=1;" parent="1" vertex="1">
          <mxGeometry x="160" y="700" width="120" height="50" as="geometry" />
        </mxCell>
        <mxCell id="W9U9pzRwrjz12LP2EGkp-58" value="" style="endArrow=none;html=1;rounded=0;entryX=0.807;entryY=0.331;entryDx=0;entryDy=0;exitX=0;exitY=0.5;exitDx=0;exitDy=0;endFill=0;entryPerimeter=0;" parent="1" source="W9U9pzRwrjz12LP2EGkp-57" target="W9U9pzRwrjz12LP2EGkp-5" edge="1">
          <mxGeometry width="50" height="50" relative="1" as="geometry">
            <mxPoint x="120" y="770" as="sourcePoint" />
            <mxPoint x="70" y="710" as="targetPoint" />
          </mxGeometry>
        </mxCell>
        <mxCell id="W9U9pzRwrjz12LP2EGkp-59" value="" style="endArrow=none;html=1;rounded=0;entryX=0;entryY=1;entryDx=0;entryDy=0;endFill=0;exitX=1;exitY=0.25;exitDx=0;exitDy=0;" parent="1" source="W9U9pzRwrjz12LP2EGkp-4" target="W9U9pzRwrjz12LP2EGkp-5" edge="1">
          <mxGeometry width="50" height="50" relative="1" as="geometry">
            <mxPoint x="-32.5" y="940" as="sourcePoint" />
            <mxPoint x="-32.5" y="785" as="targetPoint" />
          </mxGeometry>
        </mxCell>
        <mxCell id="W9U9pzRwrjz12LP2EGkp-60" value="" style="endArrow=none;html=1;rounded=0;endFill=0;exitX=0.5;exitY=0;exitDx=0;exitDy=0;" parent="1" source="W9U9pzRwrjz12LP2EGkp-2" target="W9U9pzRwrjz12LP2EGkp-5" edge="1">
          <mxGeometry width="50" height="50" relative="1" as="geometry">
            <mxPoint x="40" y="1040" as="sourcePoint" />
            <mxPoint x="500" y="937" as="targetPoint" />
          </mxGeometry>
        </mxCell>
        <mxCell id="W9U9pzRwrjz12LP2EGkp-61" value="" style="endArrow=none;html=1;rounded=0;exitX=0;exitY=0.25;exitDx=0;exitDy=0;endFill=0;" parent="1" target="W9U9pzRwrjz12LP2EGkp-5" edge="1">
          <mxGeometry width="50" height="50" relative="1" as="geometry">
            <mxPoint x="700" y="970" as="sourcePoint" />
            <mxPoint x="470" y="920" as="targetPoint" />
          </mxGeometry>
        </mxCell>
        <mxCell id="_yzicfzb6cOsaL2AJhfv-1" value="" style="endArrow=none;html=1;rounded=0;entryX=0;entryY=0.75;entryDx=0;entryDy=0;" parent="1" target="W9U9pzRwrjz12LP2EGkp-3" edge="1">
          <mxGeometry width="50" height="50" relative="1" as="geometry">
            <mxPoint x="100" y="1060" as="sourcePoint" />
            <mxPoint x="150" y="1010" as="targetPoint" />
          </mxGeometry>
        </mxCell>
        <mxCell id="_yzicfzb6cOsaL2AJhfv-5" value="&lt;u&gt;idopont_id&lt;/u&gt;" style="ellipse;whiteSpace=wrap;html=1;" parent="1" vertex="1">
          <mxGeometry x="-300" y="690" width="120" height="50" as="geometry" />
        </mxCell>
        <mxCell id="_yzicfzb6cOsaL2AJhfv-6" value="" style="endArrow=none;html=1;rounded=0;entryX=0.5;entryY=0;entryDx=0;entryDy=0;endFill=0;" parent="1" source="W9U9pzRwrjz12LP2EGkp-5" edge="1">
          <mxGeometry width="50" height="50" relative="1" as="geometry">
            <mxPoint x="-90" y="780" as="sourcePoint" />
            <mxPoint x="-180" y="715" as="targetPoint" />
          </mxGeometry>
        </mxCell>
        <mxCell id="mZgwrvTxWH132A3ji-4G-1" value="SZAKTERULET" style="rounded=0;whiteSpace=wrap;html=1;" vertex="1" parent="1">
          <mxGeometry x="640" y="600" width="150" height="50" as="geometry" />
        </mxCell>
        <mxCell id="mZgwrvTxWH132A3ji-4G-2" value="" style="endArrow=none;html=1;rounded=0;entryX=0;entryY=0;entryDx=0;entryDy=0;endFill=0;exitX=1;exitY=0.5;exitDx=0;exitDy=0;" edge="1" parent="1" source="mZgwrvTxWH132A3ji-4G-5" target="mZgwrvTxWH132A3ji-4G-1">
          <mxGeometry width="50" height="50" relative="1" as="geometry">
            <mxPoint x="515" y="560" as="sourcePoint" />
            <mxPoint x="755" y="510" as="targetPoint" />
          </mxGeometry>
        </mxCell>
        <mxCell id="mZgwrvTxWH132A3ji-4G-3" value="" style="endArrow=none;html=1;rounded=0;entryX=1;entryY=0;entryDx=0;entryDy=0;endFill=0;exitX=0;exitY=0.5;exitDx=0;exitDy=0;" edge="1" parent="1" source="mZgwrvTxWH132A3ji-4G-6" target="mZgwrvTxWH132A3ji-4G-1">
          <mxGeometry width="50" height="50" relative="1" as="geometry">
            <mxPoint x="980" y="540" as="sourcePoint" />
            <mxPoint x="679" y="570" as="targetPoint" />
          </mxGeometry>
        </mxCell>
        <mxCell id="mZgwrvTxWH132A3ji-4G-5" value="szakterulet_id" style="ellipse;whiteSpace=wrap;html=1;" vertex="1" parent="1">
          <mxGeometry x="424" y="500" width="120" height="50" as="geometry" />
        </mxCell>
        <mxCell id="mZgwrvTxWH132A3ji-4G-6" value="szakterulet_nev" style="ellipse;whiteSpace=wrap;html=1;" vertex="1" parent="1">
          <mxGeometry x="930" y="480" width="120" height="50" as="geometry" />
        </mxCell>
        <mxCell id="mZgwrvTxWH132A3ji-4G-7" value="" style="endArrow=none;html=1;rounded=0;entryX=0.25;entryY=0;entryDx=0;entryDy=0;endFill=0;exitX=0.5;exitY=1;exitDx=0;exitDy=0;" edge="1" parent="1" source="mZgwrvTxWH132A3ji-4G-1" target="W9U9pzRwrjz12LP2EGkp-3">
          <mxGeometry width="50" height="50" relative="1" as="geometry">
            <mxPoint x="700" y="700" as="sourcePoint" />
            <mxPoint x="796" y="775" as="targetPoint" />
          </mxGeometry>
        </mxCell>
        <mxCell id="mZgwrvTxWH132A3ji-4G-8" value="foglalo_email_cim" style="ellipse;whiteSpace=wrap;html=1;" vertex="1" parent="1">
          <mxGeometry x="-220" y="440" width="120" height="50" as="geometry" />
        </mxCell>
        <mxCell id="mZgwrvTxWH132A3ji-4G-9" value="" style="endArrow=none;html=1;rounded=0;entryX=1;entryY=1;entryDx=0;entryDy=0;endFill=0;exitX=0;exitY=0;exitDx=0;exitDy=0;" edge="1" parent="1" target="mZgwrvTxWH132A3ji-4G-8" source="W9U9pzRwrjz12LP2EGkp-5">
          <mxGeometry width="50" height="50" relative="1" as="geometry">
            <mxPoint x="-93" y="693" as="sourcePoint" />
            <mxPoint x="-100" y="560" as="targetPoint" />
          </mxGeometry>
        </mxCell>
        <mxCell id="mZgwrvTxWH132A3ji-4G-10" value="foglalo_telefonszama" style="ellipse;whiteSpace=wrap;html=1;" vertex="1" parent="1">
          <mxGeometry x="-340" y="480" width="120" height="50" as="geometry" />
        </mxCell>
        <mxCell id="mZgwrvTxWH132A3ji-4G-11" value="" style="endArrow=none;html=1;rounded=0;entryX=1;entryY=1;entryDx=0;entryDy=0;endFill=0;exitX=0;exitY=0;exitDx=0;exitDy=0;" edge="1" parent="1" target="mZgwrvTxWH132A3ji-4G-10" source="W9U9pzRwrjz12LP2EGkp-5">
          <mxGeometry width="50" height="50" relative="1" as="geometry">
            <mxPoint x="-170" y="740" as="sourcePoint" />
            <mxPoint x="-240" y="570" as="targetPoint" />
          </mxGeometry>
        </mxCell>
      </root>
    </mxGraphModel>
  </diagram>
</mxfile>
